{
    "asset" : {
        "generator" : "Khronos glTF Blender I/O v3.3.36",
        "version" : "2.0"
    },
    "extensionsUsed" : [
        "KHR_texture_transform"
    ],
    "extensionsRequired" : [
        "KHR_texture_transform"
    ],
    "scene" : 0,
    "scenes" : [
        {
            "name" : "Scene",
            "nodes" : [
                0,
                1,
                2,
                3
            ]
        }
    ],
    "nodes" : [
        {
            "mesh" : 0,
            "name" : "Silver colour Cover",
            "scale" : [
                0.1899859607219696,
                0.1460302472114563,
                0.12092544138431549
            ],
            "translation" : [
                0,
                0.001428510993719101,
                -4.7514600737486035e-05
            ]
        },
        {
            "mesh" : 1,
            "name" : "Rubber Strip",
            "scale" : [
                0.16405275464057922,
                0.004902982618659735,
                0.003923575393855572
            ],
            "translation" : [
                0,
                0.001428510993719101,
                0
            ]
        },
        {
            "mesh" : 2,
            "name" : "Keyboard",
            "rotation" : [
                0.014523782767355442,
                0,
                0,
                0.9998946189880371
            ],
            "scale" : [
                0.005733301863074303,
                0.005733299069106579,
                0.005733299069106579
            ],
            "translation" : [
                0.004804218653589487,
                0.0074316756799817085,
                -0.03350105509161949
            ]
        },
        {
            "mesh" : 3,
            "name" : "Display",
            "rotation" : [
                0.7071068286895752,
                0,
                0,
                0.7071068286895752
            ],
            "scale" : [
                0.1835424304008484,
                0.20518212020397186,
                0.11268867552280426
            ],
            "translation" : [
                0.002499818801879883,
                0.04018707573413849,
                -0.12460538744926453
            ]
        }
    ],
    "materials" : [
        {
            "doubleSided" : true,
            "name" : "Cover Silver",
            "pbrMetallicRoughness" : {
                "baseColorFactor" : [
                    0.5906190872192383,
                    0.5906189680099487,
                    0.5906190872192383,
                    1
                ],
                "roughnessFactor" : 0.41999998688697815
            }
        },
        {
            "doubleSided" : true,
            "name" : "TouchPad Silver",
            "pbrMetallicRoughness" : {
                "roughnessFactor" : 0.41999998688697815
            }
        },
        {
            "doubleSided" : true,
            "name" : "Keyboard Black Plastic",
            "pbrMetallicRoughness" : {
                "metallicFactor" : 0,
                "metallicRoughnessTexture" : {
                    "extensions" : {
                        "KHR_texture_transform" : {
                            "offset" : [
                                0,
                                5.199999809265137
                            ],
                            "scale" : [
                                20.39999771118164,
                                -4.199999809265137
                            ]
                        }
                    },
                    "index" : 0
                }
            }
        },
        {
            "doubleSided" : true,
            "name" : "Display Glass",
            "pbrMetallicRoughness" : {
                "baseColorFactor" : [
                    0.010021689347922802,
                    0.010021689347922802,
                    0.010021689347922802,
                    1
                ],
                "metallicFactor" : 0,
                "roughnessFactor" : 0
            }
        }
    ],
    "meshes" : [
        {
            "name" : "Cover Plane",
            "primitives" : [
                {
                    "attributes" : {
                        "POSITION" : 0,
                        "NORMAL" : 1,
                        "TEXCOORD_0" : 2
                    },
                    "indices" : 3,
                    "material" : 0
                },
                {
                    "attributes" : {
                        "POSITION" : 4,
                        "NORMAL" : 5,
                        "TEXCOORD_0" : 6
                    },
                    "indices" : 7,
                    "material" : 1
                }
            ]
        },
        {
            "name" : "Rubber Stripes",
            "primitives" : [
                {
                    "attributes" : {
                        "POSITION" : 8,
                        "NORMAL" : 9,
                        "TEXCOORD_0" : 10
                    },
                    "indices" : 11
                }
            ]
        },
        {
            "name" : "Keyboard Plane",
            "primitives" : [
                {
                    "attributes" : {
                        "POSITION" : 12,
                        "NORMAL" : 13,
                        "TEXCOORD_0" : 14
                    },
                    "indices" : 15,
                    "material" : 2
                }
            ]
        },
        {
            "name" : "Display Plane",
            "primitives" : [
                {
                    "attributes" : {
                        "POSITION" : 16,
                        "NORMAL" : 17,
                        "TEXCOORD_0" : 18
                    },
                    "indices" : 19,
                    "material" : 0
                },
                {
                    "attributes" : {
                        "POSITION" : 20,
                        "NORMAL" : 21,
                        "TEXCOORD_0" : 22
                    },
                    "indices" : 23,
                    "material" : 3
                }
            ]
        }
    ],
    "textures" : [
        {
            "sampler" : 0,
            "source" : 0
        }
    ],
    "images" : [
        {
            "bufferView" : 16,
            "mimeType" : "image/png",
            "name" : "Image"
        }
    ],
    "accessors" : [
        {
            "bufferView" : 0,
            "componentType" : 5126,
            "count" : 1733,
            "max" : [
                1,
                0.05316305160522461,
                1
            ],
            "min" : [
                -1.0000003576278687,
                0.0007286928594112396,
                -0.999579131603241
            ],
            "type" : "VEC3"
        },
        {
            "bufferView" : 1,
            "componentType" : 5126,
            "count" : 1733,
            "type" : "VEC3"
        },
        {
            "bufferView" : 2,
            "componentType" : 5126,
            "count" : 1733,
            "type" : "VEC2"
        },
        {
            "bufferView" : 3,
            "componentType" : 5123,
            "count" : 3474,
            "type" : "SCALAR"
        },
        {
            "bufferView" : 4,
            "componentType" : 5126,
            "count" : 4,
            "max" : [
                0.31268638372421265,
                0.03660991042852402,
                0.9222372174263
            ],
            "min" : [
                -0.3526359796524048,
                0.02793320268392563,
                0.2576467990875244
            ],
            "type" : "VEC3"
        },
        {
            "bufferView" : 5,
            "componentType" : 5126,
            "count" : 4,
            "type" : "VEC3"
        },
        {
            "bufferView" : 6,
            "componentType" : 5126,
            "count" : 4,
            "type" : "VEC2"
        },
        {
            "bufferView" : 7,
            "componentType" : 5123,
            "count" : 6,
            "type" : "SCALAR"
        },
        {
            "bufferView" : 8,
            "componentType" : 5126,
            "count" : 96,
            "max" : [
                1.0081461668014526,
                0.2465815395116806,
                22.781984329223633
            ],
            "min" : [
                -1.0068389177322388,
                -0.230021670460701,
                -22.781984329223633
            ],
            "type" : "VEC3"
        },
        {
            "bufferView" : 9,
            "componentType" : 5126,
            "count" : 96,
            "type" : "VEC3"
        },
        {
            "bufferView" : 10,
            "componentType" : 5126,
            "count" : 96,
            "type" : "VEC2"
        },
        {
            "bufferView" : 11,
            "componentType" : 5123,
            "count" : 504,
            "type" : "SCALAR"
        },
        {
            "bufferView" : 12,
            "componentType" : 5126,
            "count" : 26304,
            "max" : [
                26.080297470092773,
                0.31343236565589905,
                9.26200008392334
            ],
            "min" : [
                -27.298017501831055,
                -0.29593178629875183,
                -8.434212684631348
            ],
            "type" : "VEC3"
        },
        {
            "bufferView" : 13,
            "componentType" : 5126,
            "count" : 26304,
            "type" : "VEC3"
        },
        {
            "bufferView" : 14,
            "componentType" : 5126,
            "count" : 26304,
            "type" : "VEC2"
        },
        {
            "bufferView" : 15,
            "componentType" : 5123,
            "count" : 40992,
            "type" : "SCALAR"
        },
        {
            "bufferView" : 17,
            "componentType" : 5126,
            "count" : 540,
            "max" : [
                1.0214238166809082,
                0.0368666797876358,
                0.324074923992157
            ],
            "min" : [
                -1.0486955642700195,
                -0.18198154866695404,
                -1.821565866470337
            ],
            "type" : "VEC3"
        },
        {
            "bufferView" : 18,
            "componentType" : 5126,
            "count" : 540,
            "type" : "VEC3"
        },
        {
            "bufferView" : 19,
            "componentType" : 5126,
            "count" : 540,
            "type" : "VEC2"
        },
        {
            "bufferView" : 20,
            "componentType" : 5123,
            "count" : 840,
            "type" : "SCALAR"
        },
        {
            "bufferView" : 21,
            "componentType" : 5126,
            "count" : 27,
            "max" : [
                1.0205938816070557,
                0.03686590492725372,
                0.3193820118904114
            ],
            "min" : [
                -1.047865390777588,
                -0.1698160618543625,
                -1.8208048343658447
            ],
            "type" : "VEC3"
        },
        {
            "bufferView" : 22,
            "componentType" : 5126,
            "count" : 27,
            "type" : "VEC3"
        },
        {
            "bufferView" : 23,
            "componentType" : 5126,
            "count" : 27,
            "type" : "VEC2"
        },
        {
            "bufferView" : 24,
            "componentType" : 5123,
            "count" : 63,
            "type" : "SCALAR"
        }
    ],
    "bufferViews" : [
        {
            "buffer" : 0,
            "byteLength" : 20796,
            "byteOffset" : 0,
            "target" : 34962
        },
        {
            "buffer" : 0,
            "byteLength" : 20796,
            "byteOffset" : 20796,
            "target" : 34962
        },
        {
            "buffer" : 0,
            "byteLength" : 13864,
            "byteOffset" : 41592,
            "target" : 34962
        },
        {
            "buffer" : 0,
            "byteLength" : 6948,
            "byteOffset" : 55456,
            "target" : 34963
        },
        {
            "buffer" : 0,
            "byteLength" : 48,
            "byteOffset" : 62404,
            "target" : 34962
        },
        {
            "buffer" : 0,
            "byteLength" : 48,
            "byteOffset" : 62452,
            "target" : 34962
        },
        {
            "buffer" : 0,
            "byteLength" : 32,
            "byteOffset" : 62500,
            "target" : 34962
        },
        {
            "buffer" : 0,
            "byteLength" : 12,
            "byteOffset" : 62532,
            "target" : 34963
        },
        {
            "buffer" : 0,
            "byteLength" : 1152,
            "byteOffset" : 62544,
            "target" : 34962
        },
        {
            "buffer" : 0,
            "byteLength" : 1152,
            "byteOffset" : 63696,
            "target" : 34962
        },
        {
            "buffer" : 0,
            "byteLength" : 768,
            "byteOffset" : 64848,
            "target" : 34962
        },
        {
            "buffer" : 0,
            "byteLength" : 1008,
            "byteOffset" : 65616,
            "target" : 34963
        },
        {
            "buffer" : 0,
            "byteLength" : 315648,
            "byteOffset" : 66624,
            "target" : 34962
        },
        {
            "buffer" : 0,
            "byteLength" : 315648,
            "byteOffset" : 382272,
            "target" : 34962
        },
        {
            "buffer" : 0,
            "byteLength" : 210432,
            "byteOffset" : 697920,
            "target" : 34962
        },
        {
            "buffer" : 0,
            "byteLength" : 81984,
            "byteOffset" : 908352,
            "target" : 34963
        },
        {
            "buffer" : 0,
            "byteLength" : 90,
            "byteOffset" : 990336
        },
        {
            "buffer" : 0,
            "byteLength" : 6480,
            "byteOffset" : 990428,
            "target" : 34962
        },
        {
            "buffer" : 0,
            "byteLength" : 6480,
            "byteOffset" : 996908,
            "target" : 34962
        },
        {
            "buffer" : 0,
            "byteLength" : 4320,
            "byteOffset" : 1003388,
            "target" : 34962
        },
        {
            "buffer" : 0,
            "byteLength" : 1680,
            "byteOffset" : 1007708,
            "target" : 34963
        },
        {
            "buffer" : 0,
            "byteLength" : 324,
            "byteOffset" : 1009388,
            "target" : 34962
        },
        {
            "buffer" : 0,
            "byteLength" : 324,
            "byteOffset" : 1009712,
            "target" : 34962
        },
        {
            "buffer" : 0,
            "byteLength" : 216,
            "byteOffset" : 1010036,
            "target" : 34962
        },
        {
            "buffer" : 0,
            "byteLength" : 126,
            "byteOffset" : 1010252,
            "target" : 34963
        }
    ],
    "samplers" : [
        {
            "magFilter" : 9729,
            "minFilter" : 9987
        }
    ],
    "buffers" : [
        {
            "byteLength" : 1010380,
            "uri" : "data:application/octet-stream;base64,"
        }
    ]
}
